<?xml version="1.0" standalone="no"?>
<!DOCTYPE svg PUBLIC "-//W3C//DTD SVG 1.1//EN" "http://www.w3.org/Graphics/SVG/1.1/DTD/svg11.dtd">
<svg xmlns="http://www.w3.org/2000/svg">
<defs >
<font id="Jura" horiz-adv-x="475" ><font-face
    font-family="Jura"
    units-per-em="1024"
    panose-1="2 0 5 3 0 0 0 0 0 0"
    ascent="838"
    descent="-205"
    alphabetic="0" />
<glyph unicode=" " glyph-name="space" horiz-adv-x="260" />
<glyph unicode="!" glyph-name="exclam" horiz-adv-x="244" d="M122 -12Q106 -12 89 0T71 29T88 58T122 70Q139 70 156 58T174 29T157 0T122 -12ZM96 649T122 649T148 616V197Q148 164 121 164Q96 164 96 197V616Q96 649 122 649Z" />
<glyph unicode="&quot;" glyph-name="quotedbl" horiz-adv-x="295" d="M197 433Q172 433 172 466V615Q172 648 198 648T224 615V466Q224 433 197 433ZM96 433Q71 433 71 466V615Q71 648 97 648Q122 648 122 615V466Q122 433 96 433Z" />
<glyph unicode="#" glyph-name="numbersign" horiz-adv-x="603" d="M343 605Q343 600 340 588L283 436H407L469 606Q478 630 496 630Q508 630 515 622T522 604Q522 597 519 588L463 436H526Q559 436 559 410T526 384H444L396 252H495Q528 252 528 225Q528 200
495 200H377L315 30Q307 6 288 6Q262 6 262 32Q262 39 265 48L322 200H197L136 30Q128 6 109 6Q84 6 84 31Q84 36 87 48L143 200H77Q44 200 44 226T77 252H162L210 384H107Q75 384 75 411Q75 436 107 436H229L291 606Q301 630 317 630Q343 630 343 605ZM265 384L217
252H340L388 384H265Z" />
<glyph unicode="$" glyph-name="dollar" horiz-adv-x="587" d="M161 89Q129 89 108 98T77 124T64 159T61 200Q61 234 87 234T113 202Q113 167 125 154T168 141H272V301H190Q61 301 61 432Q61 491 90 522T190 553H272V610Q272 643 298 643T324 611V554H425Q457
554 478 545T509 519T522 484T525 443Q525 409 499 409T473 441Q473 476 461 488T418 501H324V353H399Q469 353 498 314T527 216Q527 90 399 90H324V25Q324 -7 297 -7Q272 -7 272 24V89H161ZM416 301H324V141H416Q475 141 475 214Q475 252 459 276T416 301ZM172
353H272V501H172Q113 501 113 434Q113 395 129 374T172 353Z" />
<glyph unicode="%" glyph-name="percent" horiz-adv-x="559" d="M367 183Q367 171 376 162T397 153Q410 153 418 162T427 183Q427 196 418 204T397 213T376 205T367 183ZM312 149T312 183T337 241T397 265Q431 265 455 241T479 183T455 125T397 101Q362 101 337
125ZM134 478T134 466T143 445T164 436Q175 436 184 444T194 466T185 487T164 496Q152 496 143 487ZM81 432T81 466T105 524T164 548Q199 548 223 524T248 466T224 408T164 384Q130 384 106 408ZM466 528Q474 528 482 521T491 503Q491 492 479 479L119 133Q106
121 94 121Q86 121 78 128T69 146Q69 158 81 170L442 516Q455 528 466 528Z" />
<glyph unicode="&amp;" glyph-name="ampersand" horiz-adv-x="508" d="M386 528Q386 518 379 511T360 503Q348 503 337 518T316 551T287 585T242 600Q195 600 157 566T118 476Q118 440 156 397L392 125Q421 168 421 227Q421 263 448 263Q472 263 472 227Q472 147
427 84L473 32Q480 24 480 11Q480 -1 473 -6T458 -12Q443 -12 428 4L393 45Q326 -14 248 -14Q214 -14 180 -4T113 28T60 90T39 182Q39 231 59 279T123 357L112 370Q64 428 64 476Q64 552 120 602T243 652Q275 652 303 635T349 596T376 554T386 528ZM359 84L157
319Q91 277 91 182Q91 107 139 73T248 38Q307 38 359 84Z" />
<glyph unicode="&apos;" glyph-name="quotesingle" horiz-adv-x="194" d="M96 433Q71 433 71 466V615Q71 648 97 648Q122 648 122 615V466Q122 433 96 433Z" />
<glyph unicode="(" glyph-name="parenleft" horiz-adv-x="248" d="M125 503V133Q125 99 125 80T129 45T136 22T151 11T172 6T203 5V-47Q167 -47 147 -42T107 -20T81 35T73 133V503Q73 564 80 601T107 655T146 678T203 683V631Q182 631 172 631T151 626T137 615T130
592T126 556T125 503Z" />
<glyph unicode=")" glyph-name="parenright" horiz-adv-x="248" d="M123 503Q123 537 123 556T119 591T112 614T97 625T76 630T45 631V683Q81 683 101 678T141 656T167 601T175 503V133Q175 72 168 35T141 -19T102 -42T45 -47V5Q66 5 76 5T97 10T111 21T118 44T122
80T123 133V503Z" />
<glyph unicode="*" glyph-name="asterisk" horiz-adv-x="397" d="M307 404Q299 404 287 410L224 446V374Q224 341 198 341T172 374V446L109 410Q97 404 89 404Q79 404 72 412T65 429Q65 444 83 455L146 492L83 527Q65 538 65 553Q65 560 71 569T89 578Q97 578
109 572L172 536V608Q172 641 199 641Q224 641 224 608V536L287 572Q299 578 307 578Q318 578 325 570T332 553Q332 539 313 527L251 492L313 455Q332 443 332 429Q332 422 326 413T307 404Z" />
<glyph unicode="+" glyph-name="plus" horiz-adv-x="518" d="M285 -12T259 -12T233 20V204H69Q38 204 38 231Q38 257 69 257H233V440Q233 473 260 473Q285 473 285 440V257H447Q481 257 481 229Q481 218 472 211T447 204H285V20Q285 -12 259 -12Z" />
<glyph unicode="," glyph-name="comma" horiz-adv-x="210" d="M142 41Q142 31 137 22L96 -61Q86 -85 71 -85Q49 -85 49 -60Q49 -56 52 -44L76 43Q83 66 101 66Q112 66 127 60T142 41Z" />
<glyph unicode="-" glyph-name="hyphen" horiz-adv-x="456" d="M73 231Q73 257 104 257H349Q383 257 383 229Q383 218 374 211T349 204H104Q73 204 73 231Z" />
<glyph unicode="." glyph-name="period" horiz-adv-x="232" d="M116 70Q132 70 149 58T167 29T150 0T116 -12Q99 -12 82 0T65 29T82 58T116 70Z" />
<glyph unicode="/" glyph-name="slash" horiz-adv-x="359" d="M316 626Q316 618 313 608L95 10Q87 -13 69 -13Q60 -13 52 -8T43 11Q43 17 46 29L264 627Q272 650 289 650Q298 650 307 645T316 626Z" />
<glyph unicode="0" glyph-name="zero" horiz-adv-x="592" d="M116 497V138Q116 104 149 76T233 47H359Q409 47 442 75T476 138V497Q476 531 443 559T359 588H233Q183 588 150 560T116 497ZM528 154Q528 84 478 40T350 -5H242Q165 -5 115 39T64 154V482Q64 552
114 596T242 641H350Q427 641 477 597T528 482V154Z" />
<glyph unicode="1" glyph-name="one" horiz-adv-x="592" d="M279 600L254 576Q240 562 225 562Q212 562 207 569T201 584Q201 597 215 610L276 672Q291 685 304 685Q313 685 322 678T331 657V25Q331 -7 305 -7T279 25V600Z" />
<glyph unicode="2" glyph-name="two" horiz-adv-x="592" d="M528 460Q528 410 487 370T385 299T265 236T162 155T117 47H493Q528 47 528 20Q528 -5 493 -5H65V44Q65 115 107 169T210 257T330 319T433 383T476 460Q476 543 441 566T312 589H171Q139 589 128 576T117
529Q117 494 90 494Q65 494 65 529Q65 589 88 615T164 641H312Q423 641 475 605T528 460Z" />
<glyph unicode="3" glyph-name="three" horiz-adv-x="592" d="M338 589H254Q207 589 162 572T116 527Q116 494 90 494T64 529Q64 574 113 607T247 641H327Q436 641 482 599T528 451Q528 418 484 379T401 326Q438 315 483 268T528 185Q528 80 482 38T327 -5H247Q163
-5 114 28T64 106Q64 142 90 142T116 109Q116 81 161 64T254 47H338Q417 47 447 77T477 166Q477 219 413 259T291 299Q252 299 252 326Q252 352 291 352Q353 352 415 385T477 470Q477 528 447 558T338 589Z" />
<glyph unicode="4" glyph-name="four" horiz-adv-x="592" d="M498 170H442V24Q442 -7 416 -7Q389 -7 389 24V170H62V233L376 641H442V222H498Q530 222 530 196T498 170ZM114 222H389V579L114 222Z" />
<glyph unicode="5" glyph-name="five" horiz-adv-x="592" d="M93 121Q98 121 125 102T198 63T291 43Q377 43 424 92T471 229Q471 272 456 304T415 354T366 379T317 387H75L84 512Q89 584 115 612T198 641H449Q481 641 481 614Q481 589 449 589H192Q167 589 154
576T138 529L132 439H308Q392 439 457 382T523 229Q523 118 459 55T291 -9Q228 -9 149 26T69 95Q69 105 77 113T93 121Z" />
<glyph unicode="6" glyph-name="six" horiz-adv-x="592" d="M64 209Q64 296 86 372T139 497T205 579T266 629T304 644Q333 644 333 621Q333 605 311 594Q259 567 212 512T139 375Q203 428 296 428Q396 428 462 367T528 210Q528 114 462 53T296 -9Q195 -9 130 52T64
209ZM116 210Q116 134 164 89T296 43T428 88T476 210Q476 285 428 330T296 376T164 331T116 210Z" />
<glyph unicode="7" glyph-name="seven" horiz-adv-x="592" d="M270 -10Q260 -10 251 -5T241 14Q241 24 246 35L457 594H181Q149 594 137 581T125 534Q125 499 99 499T73 534Q73 594 96 620T173 646H493Q519 646 519 623Q519 614 515 602L297 16Q287 -10 270 -10Z" />
<glyph unicode="8" glyph-name="eight" horiz-adv-x="592" d="M116 217T116 174T124 105T156 67T205 51T281 47H312Q361 47 387 50T436 66T467 105T476 174Q476 256 441 279T312 302H281Q233 302 206 299T156 282T125 243ZM528 174Q528 118 514 82T469 27T402
2T312 -5H281Q238 -5 208 -2T149 13T103 44T75 95T64 174Q64 286 128 326Q64 361 64 472Q64 518 75 550T102 599T149 626T208 638T281 641H312Q356 641 384 639T442 627T489 600T517 550T528 472Q528 361 465 326Q528 286 528 174ZM476 472Q476 497 473 515T465
546T448 567T427 579T396 586T359 588T312 589H281Q237 589 218 588T174 582T140 564T123 529T116 472T123 415T139 381T173 362T218 355T281 354H312Q348 354 365 354T405 358T438 369T458 389T472 422T476 472Z" />
<glyph unicode="9" glyph-name="nine" horiz-adv-x="592" d="M64 471Q64 516 83 549T128 599T192 626T256 638T312 641Q528 641 528 470Q528 364 497 271T415 117T300 20T170 -16Q139 -16 139 11Q139 37 170 37Q205 37 246 54T331 105T410 199T463 334Q412 302
312 302Q64 302 64 471ZM312 589Q116 589 116 471Q116 433 133 408T183 372T243 358T312 354Q401 354 438 384T476 470Q476 589 312 589Z" />
<glyph unicode=":" glyph-name="colon" horiz-adv-x="248" d="M124 121Q140 121 157 109T175 80T158 51T124 39Q107 39 90 51T73 80T90 109T124 121ZM124 474Q140 474 157 462T175 433T158 404T124 392Q107 392 90 404T73 433T90 462T124 474Z" />
<glyph unicode=";" glyph-name="semicolon" horiz-adv-x="251" d="M173 92Q173 82 168 73L127 -10Q117 -34 102 -34Q80 -34 80 -9Q80 -5 83 7L107 94Q114 117 132 117Q143 117 158 111T173 92ZM124 474Q140 474 157 462T175 433T158 404T124 392Q107 392 90 404T73
433T90 462T124 474Z" />
<glyph unicode="&lt;" glyph-name="less" horiz-adv-x="530" d="M436 89Q426 89 415 96L51 306Q33 317 33 333Q33 348 51 358L415 568Q423 574 435 574Q446 574 453 568T460 551Q460 543 454 535T441 523L110 333L440 141Q460 131 460 116Q460 109 454 99T436 89Z" />
<glyph unicode="=" glyph-name="equal" horiz-adv-x="468" d="M79 384Q79 410 110 410H355Q389 410 389 382Q389 371 380 364T355 357H110Q79 357 79 384ZM79 281Q79 307 110 307H355Q389 307 389 279Q389 268 380 261T355 254H110Q79 254 79 281Z" />
<glyph unicode="&gt;" glyph-name="greater" horiz-adv-x="530" d="M94 89Q82 89 76 99T70 116Q70 131 90 141L420 333L89 523Q82 526 76 534T70 551Q70 561 77 567T95 574Q107 574 115 568L479 358Q497 348 497 333Q497 317 479 306L115 96Q104 89 94 89Z" />
<glyph unicode="?" glyph-name="question" horiz-adv-x="536" d="M251 70Q267 70 284 58T302 29T285 0T251 -12Q234 -12 217 0T200 29T217 58T251 70ZM277 194Q277 161 251 161T225 194V338L382 381Q408 388 425 416T442 484Q442 526 419 561T345 597H252Q214
597 192 595T147 587T115 566T98 529T91 471Q91 438 65 438Q38 438 38 471Q38 527 52 563T98 618T164 642T252 649H328Q416 649 455 601T494 484Q494 417 466 380T367 324L277 299V194Z" />
<glyph unicode="@" glyph-name="at" horiz-adv-x="593" d="M283 -5Q186 -5 128 60T70 241V395Q70 510 128 575T283 641H312Q409 641 467 576T525 395Q525 363 524 343T518 299T504 259T479 229T439 205T381 191T301 185Q228 185 202 219T175 332Q175 410 201 444T301
478T401 444T428 332Q428 281 418 250Q450 259 461 287T473 395Q473 487 432 538T312 589H283Q203 589 163 538T122 395V241Q122 149 162 98T283 47H417Q448 47 460 60T473 109Q473 142 498 142Q525 142 525 106Q525 83 522 66T509 32T478 5T424 -5H283ZM301 237Q350
237 363 256T376 332T363 407T301 426Q253 426 240 408T227 332Q227 274 240 256T301 237Z" />
<glyph unicode="A" glyph-name="A" horiz-adv-x="570" d="M316 636L543 25Q546 16 546 9Q546 -4 537 -10T520 -16Q503 -16 493 7L422 199H148L77 7Q67 -16 50 -16Q42 -16 33 -10T24 9Q24 16 27 25L254 636H316ZM284 560L168 251H402L284 560Z" />
<glyph unicode="B" glyph-name="B" horiz-adv-x="605" d="M136 332V52H326Q424 52 460 74T496 178V206Q496 287 461 309T332 332H136ZM84 36V600Q84 636 108 636H288Q399 636 452 605T506 486Q506 410 457 374Q503 357 525 319T548 209V180Q548 72 495 36T326
0H108Q84 0 84 36ZM288 384Q380 384 417 403T454 481Q454 544 418 561T288 579H136V384H288Z" />
<glyph unicode="C" glyph-name="C" horiz-adv-x="592" d="M436 0H295Q179 0 126 36T72 180V456Q72 564 125 600T289 636H436Q468 636 489 627T520 600T533 565T536 524Q536 489 510 489T484 522Q484 557 472 570T429 584H289Q241 584 214 581T164 564T133 525T124
456V180Q124 97 160 75T295 52H429Q461 52 472 66T484 114Q484 147 510 147T536 111Q536 88 533 71T521 37T490 10T436 0Z" />
<glyph unicode="D" glyph-name="D" horiz-adv-x="620" d="M548 456V180Q548 72 495 36T326 0H108Q84 0 84 36V600Q84 636 108 636H332Q386 636 422 630T488 604T533 549T548 456ZM496 180V456Q496 538 461 561T332 584H136V52H326Q424 52 460 74T496 180Z" />
<glyph unicode="E" glyph-name="E" horiz-adv-x="598" d="M136 332V52H514Q548 52 548 24Q548 0 514 0H108Q84 0 84 36V600Q84 636 108 636H514Q548 636 548 608Q548 584 514 584H136V384H395Q431 384 431 356Q431 332 395 332H136Z" />
<glyph unicode="F" glyph-name="F" horiz-adv-x="577" d="M136 27Q136 -7 110 -7T84 28V600Q84 636 108 636H514Q548 636 548 608Q548 584 514 584H136V384H395Q431 384 431 356Q431 332 395 332H136V27Z" />
<glyph unicode="G" glyph-name="G" horiz-adv-x="606" d="M484 246H353Q317 246 317 271Q317 298 353 298H536V109Q536 60 517 30T436 0H289Q234 0 198 6T132 31T87 85T72 177V459Q72 565 125 600T295 636H436Q468 636 489 627T520 600T533 565T536 525Q536 489
510 489T484 523Q484 556 473 570T429 584H295Q196 584 160 562T124 458V178Q124 97 159 75T289 52H429Q461 52 472 65T484 112V246Z" />
<glyph unicode="H" glyph-name="H" horiz-adv-x="632" d="M136 27Q136 -7 110 -7T84 27V608Q84 643 108 643Q136 643 136 608V369H496V608Q496 643 521 643Q548 643 548 608V27Q548 -7 523 -7Q496 -7 496 27V317H136V27Z" />
<glyph unicode="I" glyph-name="I" horiz-adv-x="220" d="M136 25Q136 -7 109 -7Q84 -7 84 25V610Q84 643 110 643T136 610V25Z" />
<glyph unicode="J" glyph-name="J" horiz-adv-x="550" d="M251 44Q346 44 381 66T417 170V611Q417 643 443 643T469 610V169Q469 113 455 77T410 23T343 -1T251 -8T160 -2T92 23T47 78T32 172Q32 205 60 205Q85 205 85 172Q85 89 120 67T251 44Z" />
<glyph unicode="K" glyph-name="K" horiz-adv-x="518" d="M514 28T514 18T505 1T488 -7Q475 -7 463 8L189 322L136 258V25Q136 -7 109 -7Q84 -7 84 25V610Q84 643 110 643T136 610V330L397 628Q408 643 422 643Q430 643 438 636T447 619Q447 608 437 595L224 356L503
41Q514 28 514 18Z" />
<glyph unicode="L" glyph-name="L" horiz-adv-x="516" d="M108 0Q84 0 84 35V611Q84 643 110 643T136 611V52H459Q492 52 492 25Q492 0 459 0H108Z" />
<glyph unicode="M" glyph-name="M" horiz-adv-x="653" d="M326 279Q315 279 309 287L136 545V28Q136 -7 110 -7T84 27V608Q84 643 108 643Q126 643 138 624L326 346L515 624Q528 643 544 643Q569 643 569 608V27Q569 -7 542 -7Q517 -7 517 28V545L344 287Q338
279 326 279Z" />
<glyph unicode="N" glyph-name="N" horiz-adv-x="632" d="M523 -7Q509 -7 503 0L136 543V26Q136 -7 110 -7T84 27V608Q84 643 108 643Q126 643 138 624L496 96V607Q496 643 521 643Q548 643 548 608V27Q548 -7 523 -7Z" />
<glyph unicode="O" glyph-name="O" horiz-adv-x="594" d="M399 -9T297 -9T130 54T65 228V408Q65 519 130 582T297 645T464 582T529 408V228Q529 118 464 55ZM383 593T297 593T164 544T117 407V229Q117 141 164 92T297 43T430 92T477 229V407Q477 495 430 544Z" />
<glyph unicode="P" glyph-name="P" horiz-adv-x="540" d="M136 25Q136 -7 109 -7Q84 -7 84 25V600Q84 636 108 636H289Q397 636 451 603T506 481Q506 406 461 367T333 327H136V25ZM289 379Q381 379 417 399T454 481Q454 545 417 564T289 584H136V379H289Z" />
<glyph unicode="Q" glyph-name="Q" horiz-adv-x="594" d="M383 593T297 593T164 544T117 407V229Q117 141 164 92T297 43Q365 43 406 72L350 124Q337 135 337 147Q337 157 344 165T363 173Q375 173 389 160L443 107Q477 153 477 229V407Q477 495 430 544ZM297
-9Q195 -9 130 54T65 228V408Q65 519 130 582T297 645T464 582T529 408V228Q529 131 480 71L515 37Q526 24 526 13Q526 4 519 -4T502 -12Q489 -12 478 -1L443 34Q383 -9 297 -9Z" />
<glyph unicode="R" glyph-name="R" horiz-adv-x="569" d="M288 374Q381 374 417 394T454 476Q454 540 417 559T288 579H136V374H288ZM389 332Q422 300 453 225T499 93T514 25Q514 11 507 2T487 -7T469 2T462 25T448 91T400 217T324 322H136V25Q136 -7 109 -7Q84
-7 84 25V600Q84 636 108 636H288Q397 636 451 603T506 481Q506 356 389 332Z" />
<glyph unicode="S" glyph-name="S" horiz-adv-x="599" d="M113 481Q113 441 130 413T173 379L410 328Q477 313 507 266T537 156Q537 89 498 41T367 -8H284Q227 -8 190 -2T122 23T76 78T61 172Q61 205 89 205Q114 205 114 172Q114 89 149 67T284 44H386Q439 44
462 80T485 157Q485 206 466 236T425 272L190 324Q120 339 91 376T61 482Q61 549 102 596T238 644H314Q371 644 407 638T476 613T522 559T537 466Q537 433 510 433Q484 433 484 466Q484 549 449 570T314 592H216Q162 592 138 557T113 481Z" />
<glyph unicode="T" glyph-name="T" horiz-adv-x="481" d="M421 636Q454 636 454 609Q454 584 421 584H269V25Q269 -7 240 -7Q214 -7 214 25V584H60Q27 584 27 610T60 636H421Z" />
<glyph unicode="U" glyph-name="U" horiz-adv-x="620" d="M490 611Q490 643 517 643Q542 643 542 610V228Q542 118 477 55T310 -9T143 54T78 228V610Q78 643 104 643T130 611V229Q130 141 177 92T310 43T443 92T490 229V611Z" />
<glyph unicode="V" glyph-name="V" horiz-adv-x="570" d="M286 76L493 629Q503 652 520 652Q528 652 537 646T546 627Q546 620 543 611L316 0H254L27 611Q24 620 24 627Q24 640 33 646T50 652Q67 652 77 629L286 76Z" />
<glyph unicode="W" glyph-name="W" horiz-adv-x="915" d="M664 72L836 627Q844 649 864 649Q888 649 888 630Q888 624 884 612L692 0H634L457 553L281 0H224L31 616Q27 628 27 634Q27 653 51 653Q71 653 79 631L253 72L428 626Q437 652 457 652Q480 652 488 626L664 72Z" />
<glyph unicode="X" glyph-name="X" horiz-adv-x="559" d="M497 643Q505 643 514 637T523 617Q523 605 515 596L312 317L515 39Q523 28 523 17T515 0T497 -7Q484 -7 472 9L279 277L87 9Q75 -7 61 -7Q52 -7 44 0T36 17Q36 28 44 39L247 317L44 596Q36 605 36 617Q36
631 45 637T61 643Q74 643 87 625L279 358L472 625Q486 643 497 643Z" />
<glyph unicode="Y" glyph-name="Y" horiz-adv-x="521" d="M234 308L25 597Q17 609 17 618Q17 629 25 636T42 643Q53 643 67 625L260 358L452 625Q465 643 478 643Q486 643 494 636T503 618Q503 609 495 597L287 308V24Q287 -7 260 -7Q234 -7 234 24V308Z" />
<glyph unicode="Z" glyph-name="Z" horiz-adv-x="555" d="M46 0V51L447 594H81Q45 594 45 620T81 646H509V593L110 52H474Q509 52 509 25Q509 0 474 0H46Z" />
<glyph unicode="[" glyph-name="bracketleft" horiz-adv-x="255" d="M132 631V5H210V-47H80V683H210V631H132Z" />
<glyph unicode="\" glyph-name="backslash" horiz-adv-x="359" d="M95 627L313 29Q316 17 316 11Q316 -2 307 -7T289 -13Q272 -13 264 10L46 608Q43 618 43 626Q43 639 51 644T69 650Q87 650 95 627Z" />
<glyph unicode="]" glyph-name="bracketright" horiz-adv-x="255" d="M123 5V631H45V683H175V-47H45V5H123Z" />
<glyph unicode="^" glyph-name="asciicircum" horiz-adv-x="443" d="M222 581L132 381Q121 360 103 360Q93 360 87 366T80 383Q80 387 82 395L192 641H252L361 395Q363 391 363 383Q363 360 340 360Q322 360 311 381L222 581Z" />
<glyph unicode="_" glyph-name="underscore" d="M-5 -20Q-5 5 28 5H447Q480 5 480 -22Q480 -47 447 -47H28Q-5 -47 -5 -20Z" />
<glyph unicode="`" glyph-name="grave" horiz-adv-x="212" d="M54 683Q66 683 79 668L175 553Q184 542 184 530Q184 519 176 512T159 505Q148 505 134 520L38 635Q29 646 29 657T37 675T54 683Z" />
<glyph unicode="a" glyph-name="a" horiz-adv-x="554" d="M283 243Q232 243 205 240T153 224T121 186T112 118Q112 92 129 72T167 52H260Q344 52 387 97T430 228V243H283ZM283 295H430V352Q430 383 419 396T375 409H234Q112 409 112 349Q112 314 85 314Q60 314
60 349Q60 407 106 434T227 461H382Q440 461 461 433T482 335V27Q482 -7 456 -7T430 28V63Q373 0 260 0H167Q120 0 90 33T60 123Q60 224 114 259T283 295Z" />
<glyph unicode="b" glyph-name="b" horiz-adv-x="611" d="M127 398Q186 461 298 461H327Q442 461 495 426T549 285V176Q549 71 496 36T327 0H298Q186 0 127 63V28Q127 -7 101 -7T75 27V607Q75 643 99 643Q127 643 127 607V398ZM298 409Q127 409 127 232V228Q127
52 298 52H327Q378 52 405 55T456 71T488 109T497 177V284Q497 327 489 352T457 389T406 405T327 409H298Z" />
<glyph unicode="c" glyph-name="c" horiz-adv-x="584" d="M426 0H285Q170 0 116 35T62 176V285Q62 390 116 425T285 461H426Q458 461 479 452T510 424T523 389T526 349Q526 314 500 314T474 347Q474 382 462 395T419 409H285Q234 409 207 406T155 390T123 352T114
284V177Q114 134 122 109T155 72T206 56T285 52H419Q451 52 462 66T474 114Q474 147 500 147T526 111Q526 88 523 71T511 37T480 10T426 0Z" />
<glyph unicode="d" glyph-name="d" horiz-adv-x="611" d="M484 461V607Q484 643 512 643Q536 643 536 607V27Q536 -7 510 -7T484 28V63Q425 0 313 0H284Q169 0 116 35T62 176V285Q62 390 115 425T284 461H484ZM484 409H284Q233 409 206 406T155 390T123 352T114
284V177Q114 134 122 109T154 72T205 56T284 52H313Q484 52 484 228V409Z" />
<glyph unicode="e" glyph-name="e" horiz-adv-x="592" d="M536 285V245H114V177Q114 134 122 109T155 72T206 56T285 52H419Q451 52 462 66T474 114Q474 147 500 147T526 111Q526 88 523 71T511 37T480 10T426 0H285Q170 0 116 35T62 176V285Q62 390 116 425T285
461H314Q429 461 482 426T536 285ZM314 409H285Q188 409 152 389T114 297H484Q483 368 447 388T314 409Z" />
<glyph unicode="f" glyph-name="f" horiz-adv-x="323" d="M293 584Q246 584 221 581T173 565T141 528T132 461H270Q306 461 306 433Q306 409 270 409H132V28Q132 -7 104 -7Q80 -7 80 28V410Q49 412 49 437Q49 459 80 461Q81 516 95 552T140 606T205 630T293 636Q329
636 329 608Q329 584 293 584Z" />
<glyph unicode="g" glyph-name="g" horiz-adv-x="611" d="M536 -87Q536 -152 517 -178T445 -205H162Q130 -205 109 -196T78 -168T65 -133T62 -93Q62 -58 88 -58T114 -91Q114 -126 126 -139T169 -153H438Q467 -153 475 -143T484 -103V0H284Q169 0 116 35T62 176V285Q62
390 115 425T284 461H313Q425 461 484 398V433Q484 468 510 468T536 434V-87ZM484 52V233Q484 409 313 409H284Q233 409 206 406T155 390T123 352T114 284V177Q114 134 122 109T154 72T205 56T284 52H484Z" />
<glyph unicode="h" glyph-name="h" horiz-adv-x="619" d="M298 409Q213 409 170 364T127 231V27Q127 -7 101 -7T75 27V607Q75 643 99 643Q127 643 127 607V398Q186 461 298 461H327Q442 461 495 426T549 285V27Q549 -7 524 -7Q497 -7 497 27V284Q497 327 489 352T457
389T406 405T327 409H298Z" />
<glyph unicode="i" glyph-name="i" horiz-adv-x="200" d="M99 -12Q74 -12 74 20V440Q74 473 100 473T126 440V20Q126 -12 99 -12ZM100 642Q116 642 133 630T151 601T134 572T100 560Q83 560 66 572T49 601T66 630T100 642Z" />
<glyph unicode="j" glyph-name="j" horiz-adv-x="202" d="M99 642Q115 642 132 630T150 601T133 572T99 560Q82 560 65 572T48 601T65 630T99 642ZM127 0Q127 -56 113 -91T68 -145T2 -169T-86 -175Q-122 -175 -122 -148Q-122 -123 -86 -123Q6 -123 40 -101T75
0V432Q75 468 102 468Q127 468 127 432V0Z" />
<glyph unicode="k" glyph-name="k" horiz-adv-x="454" d="M442 19Q442 10 435 2T418 -6Q407 -6 393 6L156 235L127 206V25Q127 -7 100 -7Q75 -7 75 24V610Q75 643 101 643T127 610V269L321 454Q334 466 345 466Q354 466 362 459T370 440T358 417L192 265L431 43Q442
30 442 19Z" />
<glyph unicode="l" glyph-name="l" horiz-adv-x="271" d="M197 0H190Q132 0 111 28T90 127V608Q90 643 116 643T142 608V110Q142 78 153 65T197 52Q232 52 232 25Q232 0 197 0Z" />
<glyph unicode="m" glyph-name="m" horiz-adv-x="830" d="M257 409Q195 409 161 363T126 231V27Q126 -7 100 -7T74 27V433Q74 468 98 468Q126 468 126 432V398Q154 432 183 446T257 461Q325 461 367 445T428 381Q479 461 575 461Q667 461 713 425T759 285V27Q759
-7 733 -7T707 27V284Q707 327 701 352T676 389T637 405T575 409Q512 409 477 363T442 231V27Q442 -7 417 -7Q390 -7 390 27V284Q390 365 363 387T257 409Z" />
<glyph unicode="n" glyph-name="n" horiz-adv-x="617" d="M297 409Q212 409 169 364T126 231V27Q126 -7 100 -7T74 27V433Q74 468 98 468Q126 468 126 432V398Q185 461 297 461H326Q441 461 494 426T548 285V27Q548 -7 523 -7Q496 -7 496 27V284Q496 327 488 352T456
389T405 405T326 409H297Z" />
<glyph unicode="o" glyph-name="o" horiz-adv-x="598" d="M314 0H285Q170 0 116 35T62 176V285Q62 390 116 425T285 461H314Q429 461 482 426T536 285V176Q536 71 483 36T314 0ZM285 52H314Q365 52 392 55T443 71T475 109T484 177V284Q484 327 476 352T444 389T393
405T314 409H285Q234 409 207 406T155 390T123 352T114 284V177Q114 134 122 109T155 72T206 56T285 52Z" />
<glyph unicode="p" glyph-name="p" horiz-adv-x="611" d="M497 284Q497 327 489 352T457 389T406 405T327 409H298Q127 409 127 232V52H328Q426 52 461 74T497 177V284ZM549 176Q549 71 496 36T328 0H127V-147Q127 -182 99 -182Q75 -182 75 -147V434Q75 468 101
468T127 433V398Q186 461 298 461H327Q442 461 495 426T549 285V176Z" />
<glyph unicode="q" glyph-name="q" horiz-adv-x="611" d="M114 284V177Q114 134 122 109T154 72T205 56T284 52H484V232Q484 409 314 409H285Q234 409 207 406T155 390T123 352T114 284ZM62 176V285Q62 390 116 425T285 461H314Q427 461 484 398V433Q484 468 510
468T536 434V-147Q536 -182 512 -182Q484 -182 484 -147V0H284Q169 0 116 35T62 176Z" />
<glyph unicode="r" glyph-name="r" horiz-adv-x="383" d="M287 409Q209 409 168 363T126 231V27Q126 -7 100 -7T74 27V433Q74 468 98 468Q126 468 126 432V398Q185 461 287 461H333Q368 461 368 435T333 409H287Z" />
<glyph unicode="s" glyph-name="s" horiz-adv-x="586" d="M160 0Q128 0 107 9T76 36T63 71T60 111Q60 147 86 147T112 114Q112 80 123 66T167 52H415Q474 52 474 126Q474 163 458 186T415 210H189Q60 210 60 340Q60 400 91 430T199 461H424Q456 461 477 452T508
424T521 389T524 349Q524 314 498 314T472 347Q472 382 460 395T417 409H171Q112 409 112 340Q112 302 128 282T171 262H398Q468 262 497 223T526 126Q526 64 495 32T388 0H160Z" />
<glyph unicode="t" glyph-name="t" horiz-adv-x="344" d="M130 177Q130 96 164 74T291 52Q326 52 326 28Q326 0 291 0Q183 0 131 36T78 176V410Q47 412 47 437Q47 459 78 461V565Q78 601 102 601Q130 601 130 565V461H268Q304 461 304 433Q304 409 268 409H130V177Z" />
<glyph unicode="u" glyph-name="u" horiz-adv-x="618" d="M321 52Q406 52 449 97T492 230V434Q492 468 518 468T544 434V28Q544 -7 520 -7Q492 -7 492 29V63Q433 0 321 0H292Q177 0 124 35T70 176V434Q70 468 95 468Q122 468 122 434V177Q122 134 130 109T162
72T213 56T292 52H321Z" />
<glyph unicode="v" glyph-name="v" horiz-adv-x="509" d="M212 0L32 436Q28 445 28 452Q28 473 52 473Q70 473 80 451L252 51L430 452Q439 473 458 473Q482 473 482 453Q482 445 478 436L286 0H212Z" />
<glyph unicode="w" glyph-name="w" horiz-adv-x="792" d="M758 436L603 0H524L397 374L260 0H181L35 436Q31 448 31 454Q31 473 55 473Q75 473 83 451L223 48L369 446Q377 467 398 467Q418 467 425 446L565 48L710 451Q718 473 738 473Q762 473 762 454Q762 448 758 436Z" />
<glyph unicode="x" glyph-name="x" horiz-adv-x="512" d="M472 12Q472 2 464 -4T447 -11Q435 -11 423 1L257 194L90 1Q76 -11 65 -11Q56 -11 48 -5T40 12Q40 16 50 36L221 230L50 425Q40 437 40 448Q40 458 48 465T65 472Q76 472 90 460L257 267L423 460Q435 472
447 472Q456 472 464 465T472 448Q472 437 462 425L291 230L462 36Q472 21 472 12Z" />
<glyph unicode="y" glyph-name="y" horiz-adv-x="619" d="M544 -87Q544 -152 525 -178T453 -205H170Q138 -205 117 -196T86 -168T73 -133T70 -93Q70 -58 96 -58T122 -91Q122 -126 134 -139T177 -153H446Q475 -153 483 -143T492 -103V63Q433 0 321 0H292Q177 0
124 35T70 176V434Q70 468 95 468Q122 468 122 434V177Q122 134 130 109T162 72T213 56T292 52H321Q406 52 449 97T492 230V434Q492 468 518 468T544 434V-87Z" />
<glyph unicode="z" glyph-name="z" horiz-adv-x="552" d="M126 52H393Q429 52 439 70T449 129Q449 165 475 165T501 129Q501 59 480 30T401 0H59V64L416 409H166Q131 409 121 391T111 332Q111 296 84 296Q59 296 59 332Q59 403 80 432T159 461H480V394L126 52Z" />
<glyph unicode="{" glyph-name="braceleft" horiz-adv-x="262" d="M163 236Q163 210 149 164T135 108Q135 38 147 22T213 5V-47Q143 -47 113 -17T83 108Q83 127 97 173T111 236Q111 258 85 280T38 313V321Q59 332 85 355T111 400Q111 417 97 463T83 528Q83 623
113 653T213 683V631Q161 631 148 614T135 528Q135 518 149 472T163 400Q163 360 92 317Q163 278 163 236Z" />
<glyph unicode="|" glyph-name="bar" horiz-adv-x="214" d="M133 25Q133 -7 106 -7Q81 -7 81 25V610Q81 643 107 643T133 610V25Z" />
<glyph unicode="}" glyph-name="braceright" horiz-adv-x="262" d="M99 236Q99 278 170 317Q99 360 99 400Q99 426 113 472T127 528Q127 597 114 614T49 631V683Q119 683 149 653T179 528Q179 509 165 463T151 400Q151 378 177 355T224 321V313Q203 303 177 281T151
236Q151 219 165 173T179 108Q179 13 149 -17T49 -47V5Q102 5 114 21T127 108Q127 118 113 164T99 236Z" />
<glyph unicode="~" glyph-name="asciitilde" horiz-adv-x="425" d="M266 234Q269 234 274 238L305 266Q318 275 327 275Q337 275 345 269T353 252Q353 238 339 225L292 186Q284 178 273 178Q271 178 269 178T266 179T262 180H261L163 216Q161 218 157 218Q154
218 149 214L118 186Q105 177 96 177T79 183T71 201Q71 216 85 227L131 265Q138 274 150 274Q152 274 157 273T163 272L261 236L266 234Z" />
<glyph unicode="&#xa1;" glyph-name="exclamdown" horiz-adv-x="230" d="M114 -170Q89 -170 89 -138V282Q89 315 115 315T141 282V-138Q141 -170 114 -170ZM114 491Q132 491 149 479T166 450T149 421T114 409Q98 409 81 421T63 450T80 479T114 491Z" />
<glyph unicode="&#xa2;" glyph-name="cent" horiz-adv-x="478" d="M243 -12Q218 -12 218 20V118Q133 123 91 162T49 298V340Q49 435 92 474T218 519V615Q218 648 245 648Q270 648 270 615V520H322Q354 520 375 511T405 484T418 450T421 409Q421 373 396 373Q369
373 369 407Q369 442 358 455T315 468H270V170H313Q344 170 356 183T369 231Q369 265 394 265Q421 265 421 229Q421 206 418 189T405 155T374 128T320 118H270V20Q270 -12 243 -12ZM218 171V467Q155 464 128 438T101 340V298Q101 225 127 200T218 171Z" />
<glyph unicode="&#xa3;" glyph-name="sterling" horiz-adv-x="501" d="M65 23Q65 29 66 32L104 468Q109 524 125 561T169 617T224 641T288 648Q359 648 400 618T441 501Q441 468 414 468Q389 468 389 501Q389 562 364 579T284 596Q225 596 194 572T156 468L147
369H181Q213 369 213 342Q213 317 181 317H143L119 47H410Q443 47 443 20Q443 -5 410 -5H87Q65 -5 65 23Z" />
<glyph unicode="&#xa4;" glyph-name="currency" horiz-adv-x="495" d="M143 230Q143 187 174 157T248 126T321 156T352 230T322 304T248 335Q204 335 174 305T143 230ZM99 230Q99 278 125 315L80 360Q68 374 68 384Q68 393 76 401T93 409Q103 409 117 397L162
352Q200 379 248 379T333 352L377 397Q390 409 402 409Q410 409 418 403T427 385Q427 372 413 360L369 315Q396 279 396 230Q396 182 369 145L413 101Q427 87 427 77Q427 69 419 60T401 51Q390 51 377 65L333 109Q296 82 248 82T162 109L117 65Q105 51 92 51Q84
51 76 58T68 76Q68 88 80 101L125 146Q99 183 99 230Z" />
<glyph unicode="&#xa5;" glyph-name="yen" horiz-adv-x="538" d="M39 601Q31 613 31 623Q31 634 39 641T56 648Q67 648 81 630L269 363L456 630Q468 648 482 648Q490 648 498 641T507 623T499 601L295 308V277H389Q422 277 422 250Q422 225 389 225H295V188H389Q422
188 422 161Q422 136 389 136H295V20Q295 -12 269 -12Q244 -12 244 20V136H144Q112 136 112 163Q112 188 144 188H244V225H144Q112 225 112 252Q112 277 144 277H244V308L39 601Z" />
<glyph unicode="&#xa6;" glyph-name="brokenbar" horiz-adv-x="213" d="M107 648Q132 648 132 616V401Q132 368 105 368Q81 368 81 401V616Q81 648 107 648ZM107 268Q132 268 132 237V22Q132 -12 105 -12Q81 -12 81 22V237Q81 268 107 268Z" />
<glyph unicode="&#xa7;" glyph-name="section" horiz-adv-x="520" d="M399 194Q445 167 445 99Q445 -5 340 -5H156Q107 -5 91 19T75 86Q75 116 102 116Q113 116 120 108T127 88Q127 62 134 55T167 47H351Q375 47 384 59T393 99Q393 164 354 169L179 194Q75 208
75 306Q75 377 121 400Q75 427 75 495Q75 599 180 599H365Q399 599 417 585T440 553T445 508Q445 478 419 478Q407 478 400 486T393 506Q393 532 386 539T353 547H169Q145 547 136 535T127 495Q127 430 166 425L341 400Q445 386 445 289Q445 217 399 194ZM127 306Q127
266 179 246T312 226Q364 226 378 236T393 289Q393 331 337 349T208 368Q156 368 142 358T127 306Z" />
<glyph unicode="&#xa8;" glyph-name="dieresis" horiz-adv-x="367" d="M111 671Q127 671 144 659T162 630T145 601T111 589Q94 589 77 601T60 630T77 659T111 671ZM257 671Q273 671 290 659T308 630T291 601T257 589Q240 589 223 601T206 630T223 659T257 671Z" />
<glyph unicode="&#xa9;" glyph-name="copyright" horiz-adv-x="612" d="M406 363Q406 346 385 346Q367 346 367 361Q367 372 364 376T349 380H301Q277 380 262 369T246 337V298Q246 278 261 267T301 255H349Q365 255 366 268T372 285Q377 289 385 289T399 284T406
272Q406 251 394 233T351 214H301Q262 214 234 235T206 298V337Q206 378 234 399T301 421H351Q381 421 393 403T406 363ZM292 82Q239 82 204 88T138 114T94 169T79 262V373Q79 429 93 465T138 521T203 546T292 553H321Q429 553 481 517T533 373V262Q533 155 481
119T321 82H292ZM292 134H321Q412 134 446 157T481 262V373Q481 455 447 478T321 501H292Q200 501 166 478T131 373V262Q131 180 165 157T292 134Z" />
<glyph unicode="&#xaa;" glyph-name="ordfeminine" horiz-adv-x="380" d="M65 182Q65 204 91 204H287Q315 204 315 180Q315 159 287 159H91Q65 159 65 182ZM249 349H192Q157 349 144 342T131 309Q131 300 136 293T150 285H187Q246 285 249 349ZM270 241Q249 241
249 258V270Q231 244 187 244H150Q124 244 107 264T90 311Q90 356 115 373T192 390H249V404Q249 416 245 420T229 425H150Q138 425 135 421T131 408T129 396Q122 387 111 387Q90 387 90 404Q90 430 106 448T147 466H232Q290 466 290 397V258Q288 241 270 241Z"
/>
<glyph unicode="&#xab;" glyph-name="guillemotleft" horiz-adv-x="503" d="M208 358L390 527Q398 535 413 535Q433 535 433 515Q433 498 419 483L264 333L419 182Q433 167 433 150Q433 130 413 130Q397 130 390 137L208 306Q190 320 190 333Q190 342 208 358ZM54
358L236 527Q244 535 259 535Q279 535 279 515Q279 498 265 483L110 333L265 182Q279 167 279 150Q279 130 259 130Q243 130 236 137L54 306Q36 320 36 333Q36 342 54 358Z" />
<glyph unicode="&#xac;" glyph-name="logicalnot" horiz-adv-x="522" d="M443 141Q443 108 415 108Q390 108 390 141V204H111Q80 204 80 231Q80 257 111 257H409Q443 257 443 225V141Z" />
<glyph unicode="&#xad;" glyph-name="uni00AD" horiz-adv-x="456" d="M73 231Q73 257 104 257H349Q383 257 383 229Q383 218 374 211T349 204H104Q73 204 73 231Z" />
<glyph unicode="&#xae;" glyph-name="registered" horiz-adv-x="612" d="M292 134H321Q412 134 446 157T481 262V373Q481 455 447 478T321 501H292Q200 501 166 478T131 373V262Q131 180 165 157T292 134ZM292 82Q239 82 204 88T138 114T94 169T79 262V373Q79
429 93 465T138 521T203 546T292 553H321Q429 553 481 517T533 373V262Q533 155 481 119T321 82H292ZM417 217Q417 211 411 207T397 203Q388 203 382 207T376 216Q373 228 355 256T314 298H243V217Q243 203 222 203Q214 203 208 207T202 217V411Q202 417 208 421T221
426H305Q414 426 414 361Q414 341 401 325T366 301Q380 289 398 260T417 217ZM305 339Q344 339 358 343T373 361Q373 376 359 380T305 385H243V339H305Z" />
<glyph unicode="&#xaf;" glyph-name="overscore" horiz-adv-x="429" d="M60 700Q60 726 91 726H336Q370 726 370 698Q370 687 361 680T336 673H91Q60 673 60 700Z" />
<glyph unicode="&#xb0;" glyph-name="degree" horiz-adv-x="403" d="M104 575T104 535T132 466T201 437Q242 437 270 465T299 535Q299 575 270 603T201 632T133 604ZM140 683T201 683T306 640T350 535T306 430T201 386T97 430T53 535T96 639Z" />
<glyph unicode="&#xb1;" glyph-name="plusminus" horiz-adv-x="579" d="M511 25Q511 14 502 7T477 0H99Q68 0 68 28Q68 53 99 53H477Q511 53 511 25ZM315 111T289 111T263 143V265H99Q68 265 68 293Q68 318 99 318H263V440Q263 473 290 473Q315 473 315 440V318H477Q511
318 511 291Q511 265 477 265H315V143Q315 111 289 111Z" />
<glyph unicode="&#xb2;" glyph-name="twosuperior" horiz-adv-x="325" d="M280 477Q280 471 272 464T253 456H45V483Q45 519 65 547T113 593T169 624T217 652T237 682Q237 714 221 721T155 729H129Q91 729 91 703Q91 693 84 687T68 680Q60 680 53 686T45 703Q45
733 69 752T125 772H155Q186 772 205 770T243 759T271 731T280 682Q280 654 252 629T189 588T125 549T92 499H253Q264 498 272 492T280 477Z" />
<glyph unicode="&#xb3;" glyph-name="threesuperior" horiz-adv-x="295" d="M138 729Q115 729 97 721T78 701Q78 683 54 683Q32 683 32 703Q32 727 60 749T134 772H146Q205 772 230 752T255 684Q255 643 196 618Q219 608 237 588T255 540Q255 496 230 476T146
456H134Q89 456 61 478T32 525Q32 545 54 545Q78 545 78 527Q78 515 96 507T138 499H150Q190 499 201 509T213 541Q213 562 185 579T126 596Q114 596 109 603T103 618Q103 627 109 633T126 639Q156 639 184 653T213 687Q213 701 210 709T193 723T150 729H138Z"
/>
<glyph unicode="&#xb4;" glyph-name="acute" horiz-adv-x="212" d="M175 635L79 520Q66 505 54 505Q46 505 38 512T29 530Q29 542 38 553L134 668Q148 683 159 683Q168 683 176 676T184 657T175 635Z" />
<glyph unicode="&#xb5;" glyph-name="uni00B5" horiz-adv-x="574" d="M449 228V438Q449 473 474 473Q501 473 501 438V24Q501 -12 476 -12Q449 -12 449 24V58Q390 -5 288 -5T127 58V-169Q127 -205 99 -205Q75 -205 75 -169V438Q75 473 100 473Q127 473 127 438V228Q127
140 168 94T288 47Q365 47 407 93T449 228Z" />
<glyph unicode="&#xb6;" glyph-name="paragraph" horiz-adv-x="467" d="M352 -12Q325 -12 325 20V589H294V20Q294 -12 269 -12Q242 -12 242 20V332H205Q125 332 80 371T35 486Q35 575 88 608T247 641H377V20Q377 -12 352 -12Z" />
<glyph unicode="&#xb7;" glyph-name="middot" horiz-adv-x="242" d="M121 428Q137 428 154 416T172 387T155 358T121 346Q104 346 87 358T70 387T87 416T121 428Z" />
<glyph unicode="&#xb8;" glyph-name="cedilla" horiz-adv-x="242" d="M143 10Q143 -6 154 -18T177 -38T201 -59T212 -94Q212 -130 184 -152T116 -175Q91 -175 64 -163T37 -125Q37 -107 52 -107Q58 -107 81 -116T118 -125Q160 -125 160 -99Q160 -89 149 -79T126
-59T102 -32T91 10H143Z" />
<glyph unicode="&#xb9;" glyph-name="onesuperior" horiz-adv-x="154" d="M37 685Q27 673 13 673Q4 673 -1 679T-7 692Q-7 704 5 714L53 764Q66 775 76 775Q84 775 91 770T99 751V480Q99 453 77 453T55 480V703L37 685Z" />
<glyph unicode="&#xba;" glyph-name="ordmasculine" horiz-adv-x="380" d="M185 285H194Q228 285 238 293T249 333V377Q249 409 239 417T194 425H185Q151 425 141 417T131 377V333Q131 301 141 293T185 285ZM185 244Q131 244 111 262T90 333V377Q90 429 111 447T185
466H194Q248 466 269 448T290 377V333Q290 281 269 263T194 244H185ZM65 182Q65 204 91 204H287Q315 204 315 180Q315 159 287 159H91Q65 159 65 182Z" />
<glyph unicode="&#xbb;" glyph-name="guillemotright" horiz-adv-x="503" d="M449 358Q467 342 467 333Q467 320 449 306L267 137Q260 130 244 130Q224 130 224 150Q224 167 238 182L393 333L238 483Q224 498 224 515Q224 535 244 535Q259 535 267 527L449 358ZM295
358Q313 342 313 333Q313 320 295 306L113 137Q106 130 90 130Q70 130 70 150Q70 167 84 182L239 333L84 483Q70 498 70 515Q70 535 90 535Q105 535 113 527L295 358Z" />
<glyph unicode="&#xbc;" glyph-name="onequarter" horiz-adv-x="584" d="M133 551Q123 539 109 539Q100 539 95 545T89 558Q89 570 101 580L149 630Q162 641 172 641Q180 641 187 636T195 617V346Q195 319 173 319T151 346V569L133 551ZM509 519Q509 507 497 495L88
85Q75 73 63 73Q43 73 43 93Q43 105 55 118L465 527Q477 539 489 539Q509 539 509 519ZM470 95V18Q470 -9 448 -9T426 18V95H294V147L416 310H470V138H514Q540 138 540 117Q540 95 514 95H470ZM426 138V256L338 138H426Z" />
<glyph unicode="&#xbd;" glyph-name="onehalf" horiz-adv-x="612" d="M506 519Q506 507 494 495L85 85Q72 73 60 73Q40 73 40 93Q40 105 52 118L462 527Q474 539 486 539Q506 539 506 519ZM559 15Q559 9 551 2T532 -6H324V21Q324 57 344 85T392 131T448 162T496
190T516 220Q516 252 500 259T434 267H408Q370 267 370 241Q370 231 363 225T347 218Q339 218 332 224T324 241Q324 271 348 290T404 310H434Q465 310 484 308T522 297T550 269T559 220Q559 192 531 167T468 126T404 87T371 37H532Q543 36 551 30T559 15ZM141 551Q131
539 117 539Q108 539 103 545T97 558Q97 570 109 580L157 630Q170 641 180 641Q188 641 195 636T203 617V346Q203 319 181 319T159 346V569L141 551Z" />
<glyph unicode="&#xbe;" glyph-name="threequarters" horiz-adv-x="631" d="M516 95V18Q516 -9 494 -9T472 18V95H340V147L462 310H516V138H560Q586 138 586 117Q586 95 560 95H516ZM472 138V256L384 138H472ZM560 519Q560 507 548 495L139 85Q126 73 114 73Q94
73 94 93Q94 105 106 118L516 527Q528 539 540 539Q560 539 560 519ZM169 598Q146 598 128 590T109 570Q109 552 85 552Q63 552 63 572Q63 596 91 618T165 641H177Q236 641 261 621T286 553Q286 512 227 487Q250 477 268 457T286 409Q286 365 261 345T177 325H165Q120
325 92 347T63 394Q63 414 85 414Q109 414 109 396Q109 384 127 376T169 368H181Q221 368 232 378T244 410Q244 431 216 448T157 465Q145 465 140 472T134 487Q134 496 140 502T157 508Q187 508 215 522T244 556Q244 570 241 578T224 592T181 598H169Z" />
<glyph unicode="&#xbf;" glyph-name="questiondown" horiz-adv-x="529" d="M282 409Q265 409 248 421T230 450T247 479T282 491Q298 491 315 479T333 450T316 421T282 409ZM255 285Q255 318 282 318Q307 318 307 285V141L150 98Q124 91 107 63T90 -5Q90 -47 113
-82T187 -118H281Q329 -118 354 -115T402 -99T432 -61T441 8Q441 41 467 41Q494 41 494 8Q494 -48 480 -84T435 -139T369 -163T281 -170H205Q117 -170 78 -122T38 -5Q38 62 67 99T166 155L255 180V285Z" />
<glyph unicode="&#xc0;" glyph-name="Agrave" horiz-adv-x="570" d="M203 819Q215 819 227 806L297 737Q309 723 309 712Q309 704 302 696T284 688Q271 688 259 701L190 769Q177 784 177 794Q177 802 185 810T203 819ZM316 636L543 25Q546 16 546 9Q546 -4 537
-10T520 -16Q503 -16 493 7L422 199H148L77 7Q67 -16 50 -16Q42 -16 33 -10T24 9Q24 16 27 25L254 636H316ZM284 560L168 251H402L284 560Z" />
<glyph unicode="&#xc1;" glyph-name="Aacute" horiz-adv-x="570" d="M361 770L291 701Q279 688 267 688Q257 688 249 695T241 712Q241 723 254 738L323 806Q335 819 348 819Q359 819 366 811T373 794Q373 784 361 770ZM316 636L543 25Q546 16 546 9Q546 -4 537
-10T520 -16Q503 -16 493 7L422 199H148L77 7Q67 -16 50 -16Q42 -16 33 -10T24 9Q24 16 27 25L254 636H316ZM284 560L168 251H402L284 560Z" />
<glyph unicode="&#xc2;" glyph-name="Acircumflex" horiz-adv-x="570" d="M150 687L255 819H314L421 687Q427 679 427 669Q427 646 404 646Q399 646 395 648T389 651T382 659T376 666L285 762L195 666Q193 664 190 660T185 655T181 651T175 647T167 646Q144 646
144 669Q144 679 150 687ZM316 636L543 25Q546 16 546 9Q546 -4 537 -10T520 -16Q503 -16 493 7L422 199H148L77 7Q67 -16 50 -16Q42 -16 33 -10T24 9Q24 16 27 25L254 636H316ZM284 560L168 251H402L284 560Z" />
<glyph unicode="&#xc3;" glyph-name="Atilde" horiz-adv-x="570" d="M339 758Q342 758 347 762L378 790Q391 799 400 799Q410 799 418 793T426 776Q426 762 412 749L365 710Q357 702 346 702Q344 702 342 702T339 703T335 704H334L236 740Q234 742 230 742Q227
742 222 738L191 710Q178 701 169 701T152 707T144 725Q144 740 158 751L204 789Q211 798 223 798Q225 798 230 797T236 796L334 760L339 758ZM316 636L543 25Q546 16 546 9Q546 -4 537 -10T520 -16Q503 -16 493 7L422 199H148L77 7Q67 -16 50 -16Q42 -16 33 -10T24
9Q24 16 27 25L254 636H316ZM284 560L168 251H402L284 560Z" />
<glyph unicode="&#xc4;" glyph-name="Adieresis" horiz-adv-x="570" d="M212 784Q228 784 245 772T263 743T246 714T212 702Q195 702 178 714T161 743T178 772T212 784ZM358 784Q374 784 391 772T409 743T392 714T358 702Q341 702 324 714T307 743T324 772T358
784ZM316 636L543 25Q546 16 546 9Q546 -4 537 -10T520 -16Q503 -16 493 7L422 199H148L77 7Q67 -16 50 -16Q42 -16 33 -10T24 9Q24 16 27 25L254 636H316ZM284 560L168 251H402L284 560Z" />
<glyph unicode="&#xc5;" glyph-name="Aring" horiz-adv-x="570" d="M241 738Q241 720 254 707T285 694Q302 694 315 707T329 738T316 769T285 782Q267 782 254 769T241 738ZM251 819T285 819T342 796T366 738T343 681T285 657T228 680T204 738T227 795ZM316 636L543
25Q546 16 546 9Q546 -4 537 -10T520 -16Q503 -16 493 7L422 199H148L77 7Q67 -16 50 -16Q42 -16 33 -10T24 9Q24 16 27 25L254 636H316ZM284 560L168 251H402L284 560Z" />
<glyph unicode="&#xc6;" glyph-name="AE" horiz-adv-x="867" d="M452 332V52H785Q819 52 819 24Q819 0 785 0H424Q400 0 400 36V199H185L62 7Q47 -16 29 -16Q9 -16 9 2Q9 12 17 25L405 631Q412 641 424 641H785Q819 641 819 613Q819 589 785 589H452V384H666Q702
384 702 356Q702 332 666 332H452ZM400 251V533L219 251H400Z" />
<glyph unicode="&#xc7;" glyph-name="Ccedilla" horiz-adv-x="590" d="M283 0Q173 1 122 37T71 180V466Q71 574 124 610T288 646H435Q467 646 488 637T519 610T532 575T535 534Q535 499 509 499T483 532Q483 567 471 580T428 594H288Q240 594 213 591T163 574T132
535T123 466V180Q123 97 159 75T294 52H428Q460 52 471 66T483 114Q483 147 509 147T535 111Q535 88 532 71T520 37T489 10T435 0H336Q339 -13 350 -23T373 -40T394 -61T404 -94Q404 -130 376 -152T308 -175Q283 -175 256 -163T229 -125Q229 -107 244 -107Q250
-107 273 -116T310 -125Q352 -125 352 -99Q352 -88 336 -76T303 -45T283 0Z" />
<glyph unicode="&#xc8;" glyph-name="Egrave" horiz-adv-x="598" d="M230 819Q242 819 254 806L324 737Q336 723 336 712Q336 704 329 696T311 688Q298 688 286 701L217 769Q204 784 204 794Q204 802 212 810T230 819ZM136 332V52H514Q548 52 548 24Q548 0 514
0H108Q84 0 84 36V600Q84 636 108 636H514Q548 636 548 608Q548 584 514 584H136V384H395Q431 384 431 356Q431 332 395 332H136Z" />
<glyph unicode="&#xc9;" glyph-name="Eacute" horiz-adv-x="598" d="M375 770L305 701Q293 688 281 688Q271 688 263 695T255 712Q255 723 268 738L337 806Q349 819 362 819Q373 819 380 811T387 794Q387 784 375 770ZM136 332V52H514Q548 52 548 24Q548 0 514
0H108Q84 0 84 36V600Q84 636 108 636H514Q548 636 548 608Q548 584 514 584H136V384H395Q431 384 431 356Q431 332 395 332H136Z" />
<glyph unicode="&#xca;" glyph-name="Ecircumflex" horiz-adv-x="598" d="M176 687L281 819H340L447 687Q453 679 453 669Q453 646 430 646Q425 646 421 648T415 651T408 659T402 666L311 762L221 666Q219 664 216 660T211 655T207 651T201 647T193 646Q170 646
170 669Q170 679 176 687ZM136 332V52H514Q548 52 548 24Q548 0 514 0H108Q84 0 84 36V600Q84 636 108 636H514Q548 636 548 608Q548 584 514 584H136V384H395Q431 384 431 356Q431 332 395 332H136Z" />
<glyph unicode="&#xcb;" glyph-name="Edieresis" horiz-adv-x="598" d="M239 784Q255 784 272 772T290 743T273 714T239 702Q222 702 205 714T188 743T205 772T239 784ZM385 784Q401 784 418 772T436 743T419 714T385 702Q368 702 351 714T334 743T351 772T385
784ZM136 332V52H514Q548 52 548 24Q548 0 514 0H108Q84 0 84 36V600Q84 636 108 636H514Q548 636 548 608Q548 584 514 584H136V384H395Q431 384 431 356Q431 332 395 332H136Z" />
<glyph unicode="&#xcc;" glyph-name="Igrave" horiz-adv-x="220" d="M30 819Q42 819 54 806L124 737Q136 723 136 712Q136 704 129 696T111 688Q98 688 86 701L17 769Q4 784 4 794Q4 802 12 810T30 819ZM136 25Q136 -7 109 -7Q84 -7 84 25V610Q84 643 110 643T136
610V25Z" />
<glyph unicode="&#xcd;" glyph-name="Iacute" horiz-adv-x="220" d="M205 770L135 701Q123 688 111 688Q101 688 93 695T85 712Q85 723 98 738L167 806Q179 819 192 819Q203 819 210 811T217 794Q217 784 205 770ZM136 25Q136 -7 109 -7Q84 -7 84 25V610Q84 643
110 643T136 610V25Z" />
<glyph unicode="&#xce;" glyph-name="Icircumflex" horiz-adv-x="220" d="M-24 687L81 819H140L247 687Q253 679 253 669Q253 646 230 646Q225 646 221 648T215 651T208 659T202 666L111 762L21 666Q19 664 16 660T11 655T7 651T1 647T-7 646Q-30 646 -30 669Q-30
679 -24 687ZM136 25Q136 -7 109 -7Q84 -7 84 25V610Q84 643 110 643T136 610V25Z" />
<glyph unicode="&#xcf;" glyph-name="Idieresis" horiz-adv-x="220" d="M294 784Q310 784 327 772T345 743T328 714T294 702Q277 702 260 714T243 743T260 772T294 784ZM440 784Q456 784 473 772T491 743T474 714T440 702Q423 702 406 714T389 743T406 772T440
784ZM136 25Q136 -7 109 -7Q84 -7 84 25V610Q84 643 110 643T136 610V25Z" />
<glyph unicode="&#xd0;" glyph-name="Eth" horiz-adv-x="620" d="M496 180V456Q496 538 461 561T332 584H136V351H240Q274 351 274 324Q274 298 240 298H136V52H326Q424 52 460 74T496 180ZM548 456V180Q548 72 495 36T326 0H108Q84 0 84 36V298Q52 298 52 326Q52
351 84 351V600Q84 636 108 636H332Q386 636 422 630T488 604T533 549T548 456Z" />
<glyph unicode="&#xd1;" glyph-name="Ntilde" horiz-adv-x="632" d="M369 758Q372 758 377 762L408 790Q421 799 430 799Q440 799 448 793T456 776Q456 762 442 749L395 710Q387 702 376 702Q374 702 372 702T369 703T365 704H364L266 740Q264 742 260 742Q257
742 252 738L221 710Q208 701 199 701T182 707T174 725Q174 740 188 751L234 789Q241 798 253 798Q255 798 260 797T266 796L364 760L369 758ZM523 -7Q509 -7 503 0L136 543V26Q136 -7 110 -7T84 27V608Q84 643 108 643Q126 643 138 624L496 96V607Q496 643 521
643Q548 643 548 608V27Q548 -7 523 -7Z" />
<glyph unicode="&#xd2;" glyph-name="Ograve" horiz-adv-x="594" d="M216 819Q228 819 240 806L310 737Q322 723 322 712Q322 704 315 696T297 688Q284 688 272 701L203 769Q190 784 190 794Q190 802 198 810T216 819ZM399 -9T297 -9T130 54T65 228V408Q65 519
130 582T297 645T464 582T529 408V228Q529 118 464 55ZM383 593T297 593T164 544T117 407V229Q117 141 164 92T297 43T430 92T477 229V407Q477 495 430 544Z" />
<glyph unicode="&#xd3;" glyph-name="Oacute" horiz-adv-x="594" d="M391 770L321 701Q309 688 297 688Q287 688 279 695T271 712Q271 723 284 738L353 806Q365 819 378 819Q389 819 396 811T403 794Q403 784 391 770ZM399 -9T297 -9T130 54T65 228V408Q65 519
130 582T297 645T464 582T529 408V228Q529 118 464 55ZM383 593T297 593T164 544T117 407V229Q117 141 164 92T297 43T430 92T477 229V407Q477 495 430 544Z" />
<glyph unicode="&#xd4;" glyph-name="Ocircumflex" horiz-adv-x="594" d="M162 687L267 819H326L433 687Q439 679 439 669Q439 646 416 646Q411 646 407 648T401 651T394 659T388 666L297 762L207 666Q205 664 202 660T197 655T193 651T187 647T179 646Q156 646
156 669Q156 679 162 687ZM399 -9T297 -9T130 54T65 228V408Q65 519 130 582T297 645T464 582T529 408V228Q529 118 464 55ZM383 593T297 593T164 544T117 407V229Q117 141 164 92T297 43T430 92T477 229V407Q477 495 430 544Z" />
<glyph unicode="&#xd5;" glyph-name="Otilde" horiz-adv-x="594" d="M351 758Q354 758 359 762L390 790Q403 799 412 799Q422 799 430 793T438 776Q438 762 424 749L377 710Q369 702 358 702Q356 702 354 702T351 703T347 704H346L248 740Q246 742 242 742Q239
742 234 738L203 710Q190 701 181 701T164 707T156 725Q156 740 170 751L216 789Q223 798 235 798Q237 798 242 797T248 796L346 760L351 758ZM399 -9T297 -9T130 54T65 228V408Q65 519 130 582T297 645T464 582T529 408V228Q529 118 464 55ZM383 593T297 593T164
544T117 407V229Q117 141 164 92T297 43T430 92T477 229V407Q477 495 430 544Z" />
<glyph unicode="&#xd6;" glyph-name="Odieresis" horiz-adv-x="594" d="M225 784Q241 784 258 772T276 743T259 714T225 702Q208 702 191 714T174 743T191 772T225 784ZM371 784Q387 784 404 772T422 743T405 714T371 702Q354 702 337 714T320 743T337 772T371
784ZM399 -9T297 -9T130 54T65 228V408Q65 519 130 582T297 645T464 582T529 408V228Q529 118 464 55ZM383 593T297 593T164 544T117 407V229Q117 141 164 92T297 43T430 92T477 229V407Q477 495 430 544Z" />
<glyph unicode="&#xd7;" glyph-name="multiply" horiz-adv-x="493" d="M71 382Q71 391 78 398T95 406Q107 406 119 394L246 266L374 393Q386 405 398 405Q407 405 414 398T422 381Q422 369 410 357L282 230L409 102Q422 91 422 78Q422 69 415 62T397 54Q385 54
373 66L246 194L118 67Q107 54 94 54Q85 54 78 61T70 79Q70 91 82 103L210 230L83 358Q71 370 71 382Z" />
<glyph unicode="&#xd8;" glyph-name="Oslash" horiz-adv-x="594" d="M297 593Q211 593 164 543T117 404V222Q117 152 145 108L415 558Q368 593 297 593ZM475 638Q482 638 491 632T501 613Q501 605 495 593L478 566Q529 504 529 408V228Q529 118 464 55T297 -9Q212
-9 156 33L146 17Q136 -2 120 -2Q113 -2 104 4T95 22Q95 31 101 43L116 68Q65 130 65 228V408Q65 519 130 582T297 645Q384 645 440 602L450 619Q459 638 475 638ZM477 414Q477 482 450 526L180 77Q226 43 297 43Q383 43 430 92T477 232V414Z" />
<glyph unicode="&#xd9;" glyph-name="Ugrave" horiz-adv-x="620" d="M229 809Q241 809 254 794L350 679Q359 668 359 656Q359 645 351 638T334 631Q323 631 309 646L213 761Q204 772 204 783T212 801T229 809ZM490 611Q490 643 517 643Q542 643 542 610V228Q542
118 477 55T310 -9T143 54T78 228V610Q78 643 104 643T130 611V229Q130 141 177 92T310 43T443 92T490 229V611Z" />
<glyph unicode="&#xda;" glyph-name="Uacute" horiz-adv-x="620" d="M431 761L335 646Q322 631 310 631Q302 631 294 638T285 656Q285 668 294 679L390 794Q404 809 415 809Q424 809 432 802T440 783T431 761ZM490 611Q490 643 517 643Q542 643 542 610V228Q542
118 477 55T310 -9T143 54T78 228V610Q78 643 104 643T130 611V229Q130 141 177 92T310 43T443 92T490 229V611Z" />
<glyph unicode="&#xdb;" glyph-name="Ucircumflex" horiz-adv-x="620" d="M175 687L280 819H339L446 687Q452 679 452 669Q452 646 429 646Q424 646 420 648T414 651T407 659T401 666L310 762L220 666Q218 664 215 660T210 655T206 651T200 647T192 646Q169 646
169 669Q169 679 175 687ZM490 611Q490 643 517 643Q542 643 542 610V228Q542 118 477 55T310 -9T143 54T78 228V610Q78 643 104 643T130 611V229Q130 141 177 92T310 43T443 92T490 229V611Z" />
<glyph unicode="&#xdc;" glyph-name="Udieresis" horiz-adv-x="620" d="M238 784Q254 784 271 772T289 743T272 714T238 702Q221 702 204 714T187 743T204 772T238 784ZM384 784Q400 784 417 772T435 743T418 714T384 702Q367 702 350 714T333 743T350 772T384
784ZM490 611Q490 643 517 643Q542 643 542 610V228Q542 118 477 55T310 -9T143 54T78 228V610Q78 643 104 643T130 611V229Q130 141 177 92T310 43T443 92T490 229V611Z" />
<glyph unicode="&#xdd;" glyph-name="Yacute" horiz-adv-x="521" d="M381 761L285 646Q272 631 260 631Q252 631 244 638T235 656Q235 668 244 679L340 794Q354 809 365 809Q374 809 382 802T390 783T381 761ZM234 308L25 597Q17 609 17 618Q17 629 25 636T42
643Q53 643 67 625L260 358L452 625Q465 643 478 643Q486 643 494 636T503 618Q503 609 495 597L287 308V24Q287 -7 260 -7Q234 -7 234 24V308Z" />
<glyph unicode="&#xde;" glyph-name="Thorn" horiz-adv-x="520" d="M136 466H311Q393 466 439 427T485 313T439 199T310 159H136V25Q136 -7 109 -7Q84 -7 84 25V573Q84 606 110 606T136 573V466ZM266 414H136V208H265Q359 208 395 227T432 311Q432 373 396 393T266 414Z" />
<glyph unicode="&#xdf;" glyph-name="germandbls" horiz-adv-x="464" d="M163 353V404Q207 404 237 415T281 446T300 483T306 522Q306 550 285 567T225 584Q167 584 141 562T115 461V29Q115 -7 87 -7Q63 -7 63 29V410Q32 412 32 437Q32 459 63 461Q64 515 78 551T117
605T167 629T225 636Q289 636 323 602T358 520Q358 431 284 383Q426 342 426 196Q426 79 382 30T275 -20Q231 -20 192 9T152 91Q152 127 180 127T208 93Q208 60 231 46T284 32Q320 32 347 67T374 197Q374 223 365 248T335 298T269 338T163 353Z" />
<glyph unicode="&#xe0;" glyph-name="agrave" horiz-adv-x="554" d="M190 680Q202 680 215 665L311 550Q320 539 320 527Q320 516 312 509T295 502Q284 502 270 517L174 632Q165 643 165 654T173 672T190 680ZM283 243Q232 243 205 240T153 224T121 186T112 118Q112
92 129 72T167 52H260Q344 52 387 97T430 228V243H283ZM283 295H430V352Q430 383 419 396T375 409H234Q112 409 112 349Q112 314 85 314Q60 314 60 349Q60 407 106 434T227 461H382Q440 461 461 433T482 335V27Q482 -7 456 -7T430 28V63Q373 0 260 0H167Q120 0
90 33T60 123Q60 224 114 259T283 295Z" />
<glyph unicode="&#xe1;" glyph-name="aacute" horiz-adv-x="554" d="M392 635L296 520Q283 505 271 505Q263 505 255 512T246 530Q246 542 255 553L351 668Q365 683 376 683Q385 683 393 676T401 657T392 635ZM283 243Q232 243 205 240T153 224T121 186T112 118Q112
92 129 72T167 52H260Q344 52 387 97T430 228V243H283ZM283 295H430V352Q430 383 419 396T375 409H234Q112 409 112 349Q112 314 85 314Q60 314 60 349Q60 407 106 434T227 461H382Q440 461 461 433T482 335V27Q482 -7 456 -7T430 28V63Q373 0 260 0H167Q120 0
90 33T60 123Q60 224 114 259T283 295Z" />
<glyph unicode="&#xe2;" glyph-name="acircumflex" horiz-adv-x="554" d="M136 558L241 690H300L407 558Q413 550 413 540Q413 517 390 517Q385 517 381 519T375 522T368 530T362 537L271 633L181 537Q179 535 176 531T171 526T167 522T161 518T153 517Q130 517
130 540Q130 550 136 558ZM283 243Q232 243 205 240T153 224T121 186T112 118Q112 92 129 72T167 52H260Q344 52 387 97T430 228V243H283ZM283 295H430V352Q430 383 419 396T375 409H234Q112 409 112 349Q112 314 85 314Q60 314 60 349Q60 407 106 434T227 461H382Q440
461 461 433T482 335V27Q482 -7 456 -7T430 28V63Q373 0 260 0H167Q120 0 90 33T60 123Q60 224 114 259T283 295Z" />
<glyph unicode="&#xe3;" glyph-name="atilde" horiz-adv-x="554" d="M326 574Q329 574 334 578L365 606Q378 615 387 615Q397 615 405 609T413 592Q413 578 399 565L352 526Q344 518 333 518Q331 518 329 518T326 519T322 520H321L223 556Q221 558 217 558Q214
558 209 554L178 526Q165 517 156 517T139 523T131 541Q131 556 145 567L191 605Q198 614 210 614Q212 614 217 613T223 612L321 576L326 574ZM283 243Q232 243 205 240T153 224T121 186T112 118Q112 92 129 72T167 52H260Q344 52 387 97T430 228V243H283ZM283
295H430V352Q430 383 419 396T375 409H234Q112 409 112 349Q112 314 85 314Q60 314 60 349Q60 407 106 434T227 461H382Q440 461 461 433T482 335V27Q482 -7 456 -7T430 28V63Q373 0 260 0H167Q120 0 90 33T60 123Q60 224 114 259T283 295Z" />
<glyph unicode="&#xe4;" glyph-name="adieresis" horiz-adv-x="554" d="M198 855Q214 855 231 843T249 814T232 785T198 773Q181 773 164 785T147 814T164 843T198 855ZM344 855Q360 855 377 843T395 814T378 785T344 773Q327 773 310 785T293 814T310 843T344
855ZM283 243Q232 243 205 240T153 224T121 186T112 118Q112 92 129 72T167 52H260Q344 52 387 97T430 228V243H283ZM283 295H430V352Q430 383 419 396T375 409H234Q112 409 112 349Q112 314 85 314Q60 314 60 349Q60 407 106 434T227 461H382Q440 461 461 433T482
335V27Q482 -7 456 -7T430 28V63Q373 0 260 0H167Q120 0 90 33T60 123Q60 224 114 259T283 295Z" />
<glyph unicode="&#xe5;" glyph-name="aring" horiz-adv-x="554" d="M228 598Q228 580 241 567T272 554Q289 554 302 567T316 598T303 629T272 642Q254 642 241 629T228 598ZM238 679T272 679T329 656T353 598T330 541T272 517T215 540T191 598T214 655ZM283 243Q232
243 205 240T153 224T121 186T112 118Q112 92 129 72T167 52H260Q344 52 387 97T430 228V243H283ZM283 295H430V352Q430 383 419 396T375 409H234Q112 409 112 349Q112 314 85 314Q60 314 60 349Q60 407 106 434T227 461H382Q440 461 461 433T482 335V27Q482 -7
456 -7T430 28V63Q373 0 260 0H167Q120 0 90 33T60 123Q60 224 114 259T283 295Z" />
<glyph unicode="&#xe6;" glyph-name="ae" horiz-adv-x="944" d="M283 243Q232 243 205 240T153 224T121 186T112 118Q112 92 129 72T167 52H260Q344 52 387 97T430 228V243H283ZM662 409H654Q558 409 521 388T483 295H832Q831 367 794 388T662 409ZM884 285V243H483V177Q483
134 491 109T524 72T575 56T654 52H777Q809 52 820 66T832 114Q832 147 858 147T884 111Q884 88 881 71T869 37T838 10T784 0H654Q571 0 522 16T449 78Q422 42 366 21T260 0H167Q120 0 90 33T60 123Q60 224 114 259T283 295H430V352Q430 383 419 396T375 409H234Q112
409 112 349Q112 314 85 314Q60 314 60 349Q60 407 106 434T227 461H382Q453 461 472 414Q518 461 654 461H662Q777 461 830 426T884 285Z" />
<glyph unicode="&#xe7;" glyph-name="ccedilla" horiz-adv-x="584" d="M268 0Q162 2 112 38T62 176V285Q62 390 116 425T285 461H426Q458 461 479 452T510 424T523 389T526 349Q526 314 500 314T474 347Q474 382 462 395T419 409H285Q234 409 207 406T155 390T123
352T114 284V177Q114 134 122 109T155 72T206 56T285 52H419Q451 52 462 66T474 114Q474 147 500 147T526 111Q526 88 523 71T511 37T480 10T426 0H321Q324 -13 335 -23T358 -40T379 -61T389 -94Q389 -130 361 -152T293 -175Q268 -175 241 -163T214 -125Q214 -107
229 -107Q235 -107 258 -116T295 -125Q337 -125 337 -99Q337 -88 321 -76T288 -45T268 0Z" />
<glyph unicode="&#xe8;" glyph-name="egrave" horiz-adv-x="592" d="M216 683Q228 683 241 668L337 553Q346 542 346 530Q346 519 338 512T321 505Q310 505 296 520L200 635Q191 646 191 657T199 675T216 683ZM536 285V245H114V177Q114 134 122 109T155 72T206
56T285 52H419Q451 52 462 66T474 114Q474 147 500 147T526 111Q526 88 523 71T511 37T480 10T426 0H285Q170 0 116 35T62 176V285Q62 390 116 425T285 461H314Q429 461 482 426T536 285ZM314 409H285Q188 409 152 389T114 297H484Q483 368 447 388T314 409Z" />
<glyph unicode="&#xe9;" glyph-name="eacute" horiz-adv-x="592" d="M421 635L325 520Q312 505 300 505Q292 505 284 512T275 530Q275 542 284 553L380 668Q394 683 405 683Q414 683 422 676T430 657T421 635ZM536 285V245H114V177Q114 134 122 109T155 72T206
56T285 52H419Q451 52 462 66T474 114Q474 147 500 147T526 111Q526 88 523 71T511 37T480 10T426 0H285Q170 0 116 35T62 176V285Q62 390 116 425T285 461H314Q429 461 482 426T536 285ZM314 409H285Q188 409 152 389T114 297H484Q483 368 447 388T314 409Z" />
<glyph unicode="&#xea;" glyph-name="ecircumflex" horiz-adv-x="592" d="M164 558L269 690H328L435 558Q441 550 441 540Q441 517 418 517Q413 517 409 519T403 522T396 530T390 537L299 633L209 537Q207 535 204 531T199 526T195 522T189 518T181 517Q158 517
158 540Q158 550 164 558ZM536 285V245H114V177Q114 134 122 109T155 72T206 56T285 52H419Q451 52 462 66T474 114Q474 147 500 147T526 111Q526 88 523 71T511 37T480 10T426 0H285Q170 0 116 35T62 176V285Q62 390 116 425T285 461H314Q429 461 482 426T536
285ZM314 409H285Q188 409 152 389T114 297H484Q483 368 447 388T314 409Z" />
<glyph unicode="&#xeb;" glyph-name="edieresis" horiz-adv-x="592" d="M227 855Q243 855 260 843T278 814T261 785T227 773Q210 773 193 785T176 814T193 843T227 855ZM373 855Q389 855 406 843T424 814T407 785T373 773Q356 773 339 785T322 814T339 843T373
855ZM536 285V245H114V177Q114 134 122 109T155 72T206 56T285 52H419Q451 52 462 66T474 114Q474 147 500 147T526 111Q526 88 523 71T511 37T480 10T426 0H285Q170 0 116 35T62 176V285Q62 390 116 425T285 461H314Q429 461 482 426T536 285ZM314 409H285Q188
409 152 389T114 297H484Q483 368 447 388T314 409Z" />
<glyph unicode="&#xec;" glyph-name="igrave" horiz-adv-x="200" d="M252 683Q264 683 277 668L373 553Q382 542 382 530Q382 519 374 512T357 505Q346 505 332 520L236 635Q227 646 227 657T235 675T252 683ZM99 -12Q74 -12 74 20V440Q74 473 100 473T126 440V20Q126
-12 99 -12Z" />
<glyph unicode="&#xed;" glyph-name="iacute" horiz-adv-x="200" d="M220 635L124 520Q111 505 99 505Q91 505 83 512T74 530Q74 542 83 553L179 668Q193 683 204 683Q213 683 221 676T229 657T220 635ZM99 -12Q74 -12 74 20V440Q74 473 100 473T126 440V20Q126
-12 99 -12Z" />
<glyph unicode="&#xee;" glyph-name="icircumflex" horiz-adv-x="200" d="M-35 558L70 690H129L236 558Q242 550 242 540Q242 517 219 517Q214 517 210 519T204 522T197 530T191 537L100 633L10 537Q8 535 5 531T0 526T-4 522T-10 518T-18 517Q-41 517 -41 540Q-41
550 -35 558ZM99 -12Q74 -12 74 20V440Q74 473 100 473T126 440V20Q126 -12 99 -12Z" />
<glyph unicode="&#xef;" glyph-name="idieresis" horiz-adv-x="200" d="M283 862Q299 862 316 850T334 821T317 792T283 780Q266 780 249 792T232 821T249 850T283 862ZM429 862Q445 862 462 850T480 821T463 792T429 780Q412 780 395 792T378 821T395 850T429
862ZM99 -12Q74 -12 74 20V440Q74 473 100 473T126 440V20Q126 -12 99 -12Z" />
<glyph unicode="&#xf0;" glyph-name="eth" horiz-adv-x="566" d="M153 583Q122 583 122 608Q122 636 153 636Q224 636 288 610L321 642Q335 654 347 654Q356 654 364 647T373 630Q373 618 360 605L339 585Q511 479 511 222Q511 124 453 54T295 -16Q185 -16 116
47T47 220Q47 331 116 393T295 456Q371 456 421 417Q380 504 299 546L249 499Q237 487 225 487Q216 487 207 494T197 512T211 536L245 568Q201 583 153 583ZM459 221Q459 297 418 350T295 404Q205 404 152 353T99 220T152 88T295 36Q375 36 417 94T459 221Z" />
<glyph unicode="&#xf1;" glyph-name="ntilde" horiz-adv-x="617" d="M365 574Q368 574 373 578L404 606Q417 615 426 615Q436 615 444 609T452 592Q452 578 438 565L391 526Q383 518 372 518Q370 518 368 518T365 519T361 520H360L262 556Q260 558 256 558Q253
558 248 554L217 526Q204 517 195 517T178 523T170 541Q170 556 184 567L230 605Q237 614 249 614Q251 614 256 613T262 612L360 576L365 574ZM297 409Q212 409 169 364T126 231V27Q126 -7 100 -7T74 27V433Q74 468 98 468Q126 468 126 432V398Q185 461 297 461H326Q441
461 494 426T548 285V27Q548 -7 523 -7Q496 -7 496 27V284Q496 327 488 352T456 389T405 405T326 409H297Z" />
<glyph unicode="&#xf2;" glyph-name="ograve" horiz-adv-x="598" d="M218 680Q230 680 243 665L339 550Q348 539 348 527Q348 516 340 509T323 502Q312 502 298 517L202 632Q193 643 193 654T201 672T218 680ZM314 0H285Q170 0 116 35T62 176V285Q62 390 116 425T285
461H314Q429 461 482 426T536 285V176Q536 71 483 36T314 0ZM285 52H314Q365 52 392 55T443 71T475 109T484 177V284Q484 327 476 352T444 389T393 405T314 409H285Q234 409 207 406T155 390T123 352T114 284V177Q114 134 122 109T155 72T206 56T285 52Z" />
<glyph unicode="&#xf3;" glyph-name="oacute" horiz-adv-x="598" d="M419 635L323 520Q310 505 298 505Q290 505 282 512T273 530Q273 542 282 553L378 668Q392 683 403 683Q412 683 420 676T428 657T419 635ZM314 0H285Q170 0 116 35T62 176V285Q62 390 116 425T285
461H314Q429 461 482 426T536 285V176Q536 71 483 36T314 0ZM285 52H314Q365 52 392 55T443 71T475 109T484 177V284Q484 327 476 352T444 389T393 405T314 409H285Q234 409 207 406T155 390T123 352T114 284V177Q114 134 122 109T155 72T206 56T285 52Z" />
<glyph unicode="&#xf4;" glyph-name="ocircumflex" horiz-adv-x="598" d="M164 558L269 690H328L435 558Q441 550 441 540Q441 517 418 517Q413 517 409 519T403 522T396 530T390 537L299 633L209 537Q207 535 204 531T199 526T195 522T189 518T181 517Q158 517
158 540Q158 550 164 558ZM314 0H285Q170 0 116 35T62 176V285Q62 390 116 425T285 461H314Q429 461 482 426T536 285V176Q536 71 483 36T314 0ZM285 52H314Q365 52 392 55T443 71T475 109T484 177V284Q484 327 476 352T444 389T393 405T314 409H285Q234 409 207
406T155 390T123 352T114 284V177Q114 134 122 109T155 72T206 56T285 52Z" />
<glyph unicode="&#xf5;" glyph-name="otilde" horiz-adv-x="598" d="M353 574Q356 574 361 578L392 606Q405 615 414 615Q424 615 432 609T440 592Q440 578 426 565L379 526Q371 518 360 518Q358 518 356 518T353 519T349 520H348L250 556Q248 558 244 558Q241
558 236 554L205 526Q192 517 183 517T166 523T158 541Q158 556 172 567L218 605Q225 614 237 614Q239 614 244 613T250 612L348 576L353 574ZM314 0H285Q170 0 116 35T62 176V285Q62 390 116 425T285 461H314Q429 461 482 426T536 285V176Q536 71 483 36T314 0ZM285
52H314Q365 52 392 55T443 71T475 109T484 177V284Q484 327 476 352T444 389T393 405T314 409H285Q234 409 207 406T155 390T123 352T114 284V177Q114 134 122 109T155 72T206 56T285 52Z" />
<glyph unicode="&#xf6;" glyph-name="odieresis" horiz-adv-x="598" d="M227 855Q243 855 260 843T278 814T261 785T227 773Q210 773 193 785T176 814T193 843T227 855ZM373 855Q389 855 406 843T424 814T407 785T373 773Q356 773 339 785T322 814T339 843T373
855ZM314 0H285Q170 0 116 35T62 176V285Q62 390 116 425T285 461H314Q429 461 482 426T536 285V176Q536 71 483 36T314 0ZM285 52H314Q365 52 392 55T443 71T475 109T484 177V284Q484 327 476 352T444 389T393 405T314 409H285Q234 409 207 406T155 390T123 352T114
284V177Q114 134 122 109T155 72T206 56T285 52Z" />
<glyph unicode="&#xf7;" glyph-name="divide" horiz-adv-x="439" d="M64 231Q64 257 95 257H340Q374 257 374 229Q374 218 365 211T340 204H95Q64 204 64 231ZM215 169Q231 169 248 157T266 128T249 99T215 87Q198 87 181 99T164 128T181 157T215 169ZM215 374Q231
374 248 362T266 333T249 304T215 292Q198 292 181 304T164 333T181 362T215 374Z" />
<glyph unicode="&#xf8;" glyph-name="oslash" horiz-adv-x="598" d="M492 469Q502 469 510 462T518 444Q518 436 508 421L499 411Q536 369 536 285V176Q536 71 483 36T314 0H285Q189 0 143 19L132 7Q119 -8 107 -8Q98 -8 90 -1T81 17Q81 26 92 40L100 49Q62 92
62 176V285Q62 390 116 425T285 461H314Q413 461 457 440L467 454Q479 469 492 469ZM285 52H314Q412 52 448 74T484 180V291Q484 352 465 380L178 61Q211 52 285 52ZM114 170Q114 109 134 80L421 400Q388 409 314 409H285Q186 409 150 387T114 281V170Z" />
<glyph unicode="&#xf9;" glyph-name="ugrave" horiz-adv-x="618" d="M225 680Q237 680 250 665L346 550Q355 539 355 527Q355 516 347 509T330 502Q319 502 305 517L209 632Q200 643 200 654T208 672T225 680ZM321 52Q406 52 449 97T492 230V434Q492 468 518 468T544
434V28Q544 -7 520 -7Q492 -7 492 29V63Q433 0 321 0H292Q177 0 124 35T70 176V434Q70 468 95 468Q122 468 122 434V177Q122 134 130 109T162 72T213 56T292 52H321Z" />
<glyph unicode="&#xfa;" glyph-name="uacute" horiz-adv-x="618" d="M428 635L332 520Q319 505 307 505Q299 505 291 512T282 530Q282 542 291 553L387 668Q401 683 412 683Q421 683 429 676T437 657T428 635ZM321 52Q406 52 449 97T492 230V434Q492 468 518 468T544
434V28Q544 -7 520 -7Q492 -7 492 29V63Q433 0 321 0H292Q177 0 124 35T70 176V434Q70 468 95 468Q122 468 122 434V177Q122 134 130 109T162 72T213 56T292 52H321Z" />
<glyph unicode="&#xfb;" glyph-name="ucircumflex" horiz-adv-x="618" d="M171 558L276 690H335L442 558Q448 550 448 540Q448 517 425 517Q420 517 416 519T410 522T403 530T397 537L306 633L216 537Q214 535 211 531T206 526T202 522T196 518T188 517Q165 517
165 540Q165 550 171 558ZM321 52Q406 52 449 97T492 230V434Q492 468 518 468T544 434V28Q544 -7 520 -7Q492 -7 492 29V63Q433 0 321 0H292Q177 0 124 35T70 176V434Q70 468 95 468Q122 468 122 434V177Q122 134 130 109T162 72T213 56T292 52H321Z" />
<glyph unicode="&#xfc;" glyph-name="udieresis" horiz-adv-x="618" d="M234 855Q250 855 267 843T285 814T268 785T234 773Q217 773 200 785T183 814T200 843T234 855ZM380 855Q396 855 413 843T431 814T414 785T380 773Q363 773 346 785T329 814T346 843T380
855ZM321 52Q406 52 449 97T492 230V434Q492 468 518 468T544 434V28Q544 -7 520 -7Q492 -7 492 29V63Q433 0 321 0H292Q177 0 124 35T70 176V434Q70 468 95 468Q122 468 122 434V177Q122 134 130 109T162 72T213 56T292 52H321Z" />
<glyph unicode="&#xfd;" glyph-name="yacute" horiz-adv-x="619" d="M428 635L332 520Q319 505 307 505Q299 505 291 512T282 530Q282 542 291 553L387 668Q401 683 412 683Q421 683 429 676T437 657T428 635ZM544 -87Q544 -152 525 -178T453 -205H170Q138 -205
117 -196T86 -168T73 -133T70 -93Q70 -58 96 -58T122 -91Q122 -126 134 -139T177 -153H446Q475 -153 483 -143T492 -103V63Q433 0 321 0H292Q177 0 124 35T70 176V434Q70 468 95 468Q122 468 122 434V177Q122 134 130 109T162 72T213 56T292 52H321Q406 52 449
97T492 230V434Q492 468 518 468T544 434V-87Z" />
<glyph unicode="&#xfe;" glyph-name="thorn" horiz-adv-x="611" d="M497 284Q497 327 489 352T457 389T406 405T327 409H298Q127 409 127 232V52H328Q426 52 461 74T497 177V284ZM549 176Q549 71 496 36T328 0H127V-147Q127 -182 99 -182Q75 -182 75 -147V608Q75
643 101 643T127 608V398Q186 461 298 461H327Q442 461 495 426T549 285V176Z" />
<glyph unicode="&#xff;" glyph-name="ydieresis" horiz-adv-x="619" d="M234 855Q250 855 267 843T285 814T268 785T234 773Q217 773 200 785T183 814T200 843T234 855ZM380 855Q396 855 413 843T431 814T414 785T380 773Q363 773 346 785T329 814T346 843T380
855ZM544 -87Q544 -152 525 -178T453 -205H170Q138 -205 117 -196T86 -168T73 -133T70 -93Q70 -58 96 -58T122 -91Q122 -126 134 -139T177 -153H446Q475 -153 483 -143T492 -103V63Q433 0 321 0H292Q177 0 124 35T70 176V434Q70 468 95 468Q122 468 122 434V177Q122
134 130 109T162 72T213 56T292 52H321Q406 52 449 97T492 230V434Q492 468 518 468T544 434V-87Z" />
<glyph unicode="&#x2013;" glyph-name="endash" horiz-adv-x="524" d="M73 231Q73 257 104 257H417Q451 257 451 229Q451 204 417 204H104Q73 204 73 231Z" />
<glyph unicode="&#x2014;" glyph-name="emdash" horiz-adv-x="641" d="M73 231Q73 257 104 257H534Q568 257 568 229Q568 204 534 204H104Q73 204 73 231Z" />
<glyph unicode="&#x2018;" glyph-name="quoteleft" horiz-adv-x="202" d="M135 681Q156 681 156 664Q156 658 143 629T130 555Q130 544 120 537T95 530Q63 530 63 555Q63 600 89 640T135 681Z" />
<glyph unicode="&#x2019;" glyph-name="quoteright" horiz-adv-x="202" d="M83 530Q61 530 61 547Q61 552 74 581T88 655Q88 681 123 681Q154 681 154 655Q154 608 127 569T83 530Z" />
<glyph unicode="&#x201a;" glyph-name="quotesinglbase" horiz-adv-x="209" d="M67 -84Q45 -84 45 -67Q45 -62 58 -33T72 41Q72 67 107 67Q138 67 138 41Q138 -6 111 -45T67 -84Z" />
<glyph unicode="&#x201c;" glyph-name="quotedblleft" horiz-adv-x="325" d="M258 681Q279 681 279 664Q279 658 266 629T253 555Q253 544 243 537T218 530Q186 530 186 555Q186 600 212 640T258 681ZM135 681Q156 681 156 664Q156 658 143 629T130 555Q130 544
120 537T95 530Q63 530 63 555Q63 600 89 640T135 681Z" />
<glyph unicode="&#x201d;" glyph-name="quotedblright" horiz-adv-x="325" d="M206 530Q184 530 184 547Q184 552 197 581T211 655Q211 681 246 681Q277 681 277 655Q277 608 250 569T206 530ZM83 530Q61 530 61 547Q61 552 74 581T88 655Q88 681 123 681Q154
681 154 655Q154 608 127 569T83 530Z" />
<glyph unicode="&#x201e;" glyph-name="quotedblbase" horiz-adv-x="332" d="M190 -84Q168 -84 168 -67Q168 -62 181 -33T195 41Q195 67 230 67Q261 67 261 41Q261 -6 234 -45T190 -84ZM67 -84Q45 -84 45 -67Q45 -62 58 -33T72 41Q72 67 107 67Q138 67 138 41Q138
-6 111 -45T67 -84Z" />
<glyph unicode="&#x2022;" glyph-name="bullet" horiz-adv-x="392" d="M138 398T196 398T295 357T336 258T295 159T196 118T97 159T56 258T97 357Z" />
<glyph unicode="&#x2039;" glyph-name="guilsinglleft" horiz-adv-x="349" d="M54 358L236 527Q244 535 259 535Q279 535 279 515Q279 498 265 483L110 333L265 182Q279 167 279 150Q279 130 259 130Q243 130 236 137L54 306Q36 320 36 333Q36 342 54 358Z" />
<glyph unicode="&#x203a;" glyph-name="guilsinglright" horiz-adv-x="349" d="M295 358Q313 342 313 333Q313 320 295 306L113 137Q106 130 90 130Q70 130 70 150Q70 167 84 182L239 333L84 483Q70 498 70 515Q70 535 90 535Q105 535 113 527L295 358Z" />
</font>
</defs>
</svg>
